<svg viewBox="310 0 440 230" fill="none" xmlns="http://www.w3.org/2000/svg">
  <rect x="310" width="440" height="230" fill="#6337BA" />
  <circle cx="0" cy="-230" r="630" fill="url(#açıkmavi)" filter="url(#bbbb)"/>
  <path style="mix-blend-mode:color-dodge" filter="url(#ccc)"
    d="M637.831 -405.479C715.215 -502.585 871.355 -477.571 1004.73 -371.281C1138.11 -264.991 1051.93 315.294 974.547 412.4C897.163 509.506 695.179 -4.72531 561.801 -111.015C428.423 -217.305 560.446 -308.373 637.831 -405.479Z"
    fill="url(#açıkmor)" />
  <path style="mix-blend-mode:color-dodge" filter="url(#ddd)"
    d="M501.8 -5.59486C565.386 204.07 438.727 428.083 218.899 494.751C-0.928797 561.419 -230.681 445.498 -294.267 235.833C-357.854 26.1679 -231.195 -197.844 -11.3669 -264.513C208.461 -331.181 438.214 -215.26 501.8 -5.59486Z"
    fill="url(#mavi)" />
  <defs>
    <filter id="bbbb" x="-294.758" y="-367.203" width="1025.01" height="830.121" filterUnits="userSpaceOnUse">
      <feGaussianBlur stdDeviation="30" />
    </filter>
    <filter id="ccc" x="444.394" y="-526.6" width="690.155" height="1011.48" filterUnits="userSpaceOnUse">
      <feGaussianBlur stdDeviation="30" />
    </filter>
    <filter id="ddd" x="-346.868" y="-407.437" width="1215.86" height="957.201"
      filterUnits="userSpaceOnUse">
      <feGaussianBlur stdDeviation="18" />
    </filter>
    <radialGradient id="açıkmavi" cx="0" cy="0" r="1" gradientUnits="userSpaceOnUse"
      gradientTransform="translate(736.287 92.3314) rotate(-147.928) scale(649.928 550.191)">
      <stop offset="0.44" stop-color="#7D8AFA" />
      <stop offset="0.57" stop-color="#5698E2" />
      <stop offset="0.87" stop-color="#2A4DC1" />
    </radialGradient>
    <radialGradient id="açıkmor" cx="0" cy="0" r="1" gradientUnits="userSpaceOnUse"
      gradientTransform="translate(998.489 -399.709) rotate(165.867) scale(1422.01 1203.79)">
      <stop offset="0.119659" stop-color="#2A4DC1" />
      <stop offset="0.284307" stop-color="#935BCA" />
      <stop offset="0.465279" stop-color="#5698E2" />
    </radialGradient>
    <linearGradient id="mavi" x1="-351.63" y1="81.546" x2="587.026" y2="-264.263"
      gradientUnits="userSpaceOnUse">
      <stop stop-color="#A0A2B4" />
      <stop offset="0.2" stop-color="#CFD3F2" />
      <stop offset="0.44" stop-color="#5698E2" />
      <stop offset="0.5" stop-color="#2A4DC1" />
    </linearGradient>
  </defs>
</svg>